<svg id="c" data-name="Layer 3" version="1.1" xmlns="http://www.w3.org/2000/svg" viewBox="0 0 975.06 1099.98"><defs id="defs1"><style id="style1">.f{fill:#213147}</style></defs><path d="M37 334.35v431.21c0 27.53 14.71 52.99 38.54 66.71l373.44 215.65c23.83 13.72 53.17 13.72 77 0l373.44-215.65c23.83-13.72 38.54-39.18 38.54-66.71V334.35c0-27.53-14.71-52.99-38.54-66.71L525.98 51.99c-23.83-13.72-53.17-13.72-77 0L75.45 267.64C51.62 281.36 37 306.82 37 334.35Z" class="f" id="path1"></path><path fill="#12aaff" d="m568.95 633.59-53.26 146.05c-1.44 4.06-1.44 8.49 0 12.55l91.62 251.3 105.97-61.2-127.19-348.7c-2.89-8.03-14.26-8.03-17.15 0zm106.79-245.62c-2.89-8.03-14.26-8.03-17.15 0l-53.26 146.05c-1.44 4.06-1.44 8.49 0 12.55l150.11 411.44 105.97-61.2-185.68-508.84Z" id="path2"></path><path fill="#9dcced" d="M487.44 68.15c2.62 0 5.24.72 7.58 1.99l404.13 233.34c4.69 2.71 7.58 7.76 7.58 13.09v466.59c0 5.42-2.89 10.38-7.58 13.09l-404.13 233.34c-2.26 1.35-4.96 1.99-7.58 1.99s-5.24-.72-7.58-1.99L75.73 796.43c-4.69-2.71-7.58-7.76-7.58-13.09V316.66c0-5.42 2.89-10.38 7.58-13.09L479.86 70.23c2.35-1.35 4.96-2.08 7.58-2.08m0-68.15c-14.35 0-28.8 3.7-41.7 11.19L41.7 244.44C15.88 259.33 0 286.87 0 316.65v466.59c0 29.79 15.89 57.32 41.7 72.21l404.13 233.34c12.91 7.4 27.26 11.19 41.7 11.19 14.44 0 28.8-3.7 41.7-11.19l404.13-233.34c25.82-14.89 41.7-42.43 41.7-72.21V316.65c0-29.79-15.89-57.32-41.7-72.21L529.14 11.19C516.23 3.7 501.79 0 487.44 0Z" id="path3"></path><path d="m220.16 958.55 37.19-101.82 74.83 62.19-69.96 63.91z" class="f" id="path4"></path><path fill="#fff" d="M453.41 283.26H350.96c-7.67 0-14.53 4.78-17.15 12.01L114.19 897.35l105.97 61.2 241.83-663.01c2.26-5.96-2.17-12.28-8.58-12.28zm179.27 0H530.23c-7.67 0-14.53 4.78-17.15 12.01L262.32 982.75l105.97 61.2 272.97-748.41c2.17-5.96-2.26-12.28-8.58-12.28z" id="path5"></path></svg>