<svg viewBox="0 0 400 400">
    <g fill-rule="evenodd">
        <path fill="#fbfbfb" d="M197.117 75.496c-2.596.896-4.557 3.247-8.619 10.332-10.836 18.9-99.971 176.247-100.974 178.246-2.879 5.736-2.512 9.504 1.259 12.95 2.952 2.698 3.796 2.754 39.361 2.614 30.48-.12 30.134-.102 34.789-1.798 7.477-2.724 11.727-6.812 17.568-16.895 2.472-4.268 51.359-90.659 55.308-97.738 6.686-11.985 7.601-19.962 3.394-29.565-2.188-4.994-30.128-53.437-32.136-55.718-2.216-2.517-6.596-3.586-9.95-2.428m68.663 121.373c-1.643.547-3.459 2.184-5.158 4.647-2.005 2.906-33.922 57.752-36.251 62.293l-2.016 3.929v2.325c0 4.847 2.86 8.241 7.719 9.159 2.711.513 75.241.517 77.947.005 7.603-1.438 9.926-7.688 5.798-15.603-3.471-6.656-35.281-60.727-37.232-63.287-2.697-3.54-6.719-4.831-10.807-3.468"></path>
        <path fill="#ec4444" d="M186.693.562C62.388 9.119-23.923 127.365 5.859 248.303c20.076 81.521 89.994 142.265 173.516 150.749 130.412 13.248 237.532-99.169 218.329-229.124C382.634 67.946 289.834-6.539 186.693.562m17.549 75.111c1.802.826 3.264 2.285 5.055 5.049 2.373 3.663 27.814 48.277 29.447 51.641 4.28 8.814 4.175 17.394-.324 26.33-2.575 5.115-58.638 103.881-61.139 107.708-4.972 7.608-12.186 12.13-20.794 13.032-3.516.369-59.708.364-62.456-.005-7.461-1.002-10.514-7.404-6.981-14.638 1.482-3.036 101.012-178.663 103.834-183.222 3.909-6.315 8.252-8.232 13.358-5.895m68.623 121.342c3.414 1.57 2.196-.298 22.942 35.187 21.386 36.58 20.496 34.903 20.312 38.302-.206 3.821-2.763 7.27-6.273 8.461l-1.795.609-37.525.079c-39.423.083-40.581.054-43.09-1.102-3.816-1.757-6.197-6.622-5.095-10.41 1.039-3.575 35.414-63.194 39.382-68.303 2.692-3.467 7.236-4.618 11.142-2.823"></path>
        <path fill="#f4a4a4" d="M96.809 279.629c.332.064.811.062 1.065-.005.254-.067-.016-.119-.602-.116-.585.003-.794.058-.463.121m54.958.003c.404.061 1.003.06 1.33-.004.328-.063-.003-.113-.735-.111-.732.002-1 .054-.595.115m81.699-.007c.257.067.676.067.932 0s.046-.122-.466-.122-.722.055-.466.122m70.13.004c.331.064.81.062 1.064-.005.255-.067-.016-.119-.601-.116-.586.003-.794.058-.463.121"></path>
        <path fill="#ef8080" d="M241.741 145.176c.001 1.171.048 1.617.104.991.056-.626.056-1.584-.002-2.129-.057-.545-.103-.033-.102 1.138m32.91 52.911c0 .046.389.435.865.865l.865.782-.782-.865c-.729-.806-.948-.987-.948-.782m-52.628 71.906c.003.586.058.794.121.463.064-.331.062-.81-.005-1.065-.067-.254-.119.017-.116.602"></path>
    </g>
</svg>