<svg viewBox="0 0 40 40">
    <path fill="#f3ba2f" d="M24.562 33.21v4.475l-4.578 2.293-4.447-2.293v-4.476l4.447 2.293zM.07 17.73l4.447 2.293V27.7l7.658 3.902v4.475L.07 29.992Zm39.827 0v12.28l-12.234 6.085V31.62l7.657-3.903v-7.674zm-12.255-6.08 4.578 2.293v4.475l-7.66 3.902v7.785l-4.445 2.293-4.426-2.293v-7.803l-7.94-3.903v-4.475l4.578-2.294 7.659 3.903zM7.75 21.616l4.447 2.293v4.476L7.75 26.089Zm24.47 0v4.476l-4.448 2.293v-4.478ZM4.518 7.746l4.576 2.293-4.575 2.293v4.475L.07 14.514v-4.475zm30.934 0 4.576 2.293v4.475l-4.576 2.293v-4.475l-4.447-2.293zm-15.468 0 4.578 2.293-4.578 2.293-4.447-2.293zm0-7.675L32.22 6.155l-4.448 2.293-7.657-3.902-7.81 3.902-4.446-2.293Z"></path>
</svg>