<svg viewBox="0 0 24 24" fill="none"
    xmlns="http://www.w3.org/2000/svg">
    <path d="M24 12.0106C23.9979 14.3824 23.293 16.7004 21.9743 18.6719C20.6556 20.6433 18.7822 22.1798 16.5908 23.0871C14.3994 23.9945 11.9882 24.2321 9.66182 23.77C7.33544 23.3078 5.19818 22.1667 3.52 20.4905C2.12318 19.0955 1.09212 17.3773 0.51823 15.4884C-0.0556626 13.5995 -0.154664 11.5981 0.230001 9.66181C0.614666 7.72548 1.47112 5.91396 2.72343 4.38783C3.97574 2.8617 5.58523 1.6681 7.40923 0.912856C9.23322 0.157608 11.2154 -0.135966 13.18 0.0581593C15.1446 0.252284 17.031 0.928111 18.6719 2.02573C20.3128 3.12335 21.6576 4.60886 22.587 6.35056C23.5164 8.09227 24.0017 10.0364 24 12.0106Z" fill="#5F668B"/>
    <path d="M9.22058 17.0853C7.80458 15.0805 6.64938 13.4373 6.66058 13.4309C6.67178 13.4245 7.83178 14.0981 9.24938 14.9285L11.8286 16.4373V18.5829C11.8286 19.7621 11.8286 20.7269 11.8158 20.7269C11.803 20.7269 10.6382 19.0885 9.22058 17.0853ZM12.1598 18.5909V16.4421L14.739 14.9317C16.1582 14.0997 17.3246 13.4245 17.331 13.4325C17.3374 13.4405 12.2638 20.6325 12.1966 20.7029C12.1694 20.7301 12.1598 20.1509 12.1598 18.5909ZM9.21098 13.8149C7.78538 12.9797 6.61418 12.2869 6.60938 12.2725C6.60458 12.2581 11.787 9.96526 11.8094 9.98766C11.8318 10.0101 11.819 11.2021 11.8094 12.6677L11.7998 15.3349L9.21098 13.8149ZM12.1598 12.6613C12.1598 11.1861 12.1598 9.97966 12.1806 9.97966C12.2014 9.97966 17.3598 12.2357 17.3854 12.2597C17.411 12.2837 13.475 14.5989 12.3646 15.2277L12.1598 15.3429V12.6613ZM14.7198 10.7013L12.1598 9.58766V6.43246C12.1598 4.69806 12.1726 3.29326 12.1886 3.31086C12.2542 3.38606 17.3086 11.8213 17.2846 11.8213C17.2606 11.8213 16.1118 11.3173 14.7102 10.7013H14.7198ZM6.77258 11.7717C6.77258 11.7525 11.7774 3.32846 11.811 3.29166C11.811 3.28366 11.8238 4.69646 11.8238 6.43086V9.58766L9.32938 10.6789C6.51658 11.9109 6.76938 11.7989 6.76938 11.7717H6.77258Z" fill="white"/>
</svg>
