<svg viewBox="0 0 90.532 90.532">
    <circle cx="45.266" cy="45.266" r="45.266" fill="#ff0420" data-name="Ellipse 11"></circle>
    <path fill="#fff" d="M27.034 60.742a14.656 14.656 0 0 1-8.924-2.563 8.762 8.762 0 0 1-3.432-7.413 16.433 16.433 0 0 1 .229-2.471q.595-3.3 1.693-7.917 3.112-12.585 16.062-12.585a15.966 15.966 0 0 1 6.315 1.19 9.6 9.6 0 0 1 4.393 3.478 9.333 9.333 0 0 1 1.6 5.492 16.288 16.288 0 0 1-.23 2.425q-.686 4.073-1.646 7.917-1.6 6.269-5.537 9.381-3.933 3.066-10.523 3.066zm.64-6.59a6.5 6.5 0 0 0 4.349-1.51 8.424 8.424 0 0 0 2.608-4.622q1.053-4.3 1.6-7.505a10.5 10.5 0 0 0 .183-1.968q0-4.165-4.347-4.164a6.681 6.681 0 0 0-4.393 1.51 8.573 8.573 0 0 0-2.563 4.622q-.824 3.066-1.647 7.505a9.791 9.791 0 0 0-.183 1.922q0 4.21 4.394 4.21z" data-name="Path 139"></path>
    <path fill="#fff" d="M47.078 60.285a.97.97 0 0 1-.778-.32 1.1 1.1 0 0 1-.137-.824l6.315-29.746a1.31 1.31 0 0 1 .5-.824 1.4 1.4 0 0 1 .87-.32H66.02a14.148 14.148 0 0 1 8.146 2.105 6.9 6.9 0 0 1 3.112 6.087 10.955 10.955 0 0 1-.275 2.38 12.39 12.39 0 0 1-4.622 7.78q-3.432 2.517-9.427 2.517h-6.177l-2.105 10.022a1.311 1.311 0 0 1-.5.824 1.4 1.4 0 0 1-.87.32zm16.2-17.482a5.451 5.451 0 0 0 3.34-1.052 4.942 4.942 0 0 0 1.923-3.02 8.022 8.022 0 0 0 .137-1.373 2.543 2.543 0 0 0-.778-2.014 3.836 3.836 0 0 0-2.654-.732h-5.491l-1.74 8.191z" data-name="Path 140"></path>
</svg>