<svg viewBox="0 0 260 44" fill="none"
    xmlns="http://www.w3.org/2000/svg">
    <g clip-path="url(#clip0_2541_393)">
        <path d="M34.3945 0.429688V11.6527C34.3945 14.2127 32.7301 15.6743 29.8195 15.6743C26.9089 15.6743 25.2387 14.2127 25.2387 11.6527V0.429688H21.6387V12.0189C21.6387 16.3172 24.8493 19.0934 29.8195 19.0934C34.7897 19.0934 38.0003 16.3172 38.0003 12.0189V0.429688H34.3945Z" fill="currentColor"/>
        <path d="M51.2902 9.11003H45.3305V3.94103H51.4892C53.1132 3.94103 54.2036 4.94427 54.2036 6.44913C54.2036 8.04337 53.0325 9.11003 51.2873 9.11003M54.0104 12.1284C56.3873 11.252 57.8556 9.00913 57.8556 6.28193C57.8556 2.77635 55.4844 0.429688 51.9479 0.429688H41.7305V18.6668H45.3305V12.5291H49.8594L49.8998 12.6041L53.3844 18.6668H57.6162L53.8546 12.1832L54.0104 12.1255V12.1284Z" fill="currentColor"/>
        <path d="M74.3959 0.429688V13.3277L65.142 0.429688H61.1641V18.6697H64.7641V5.87544L74.0007 18.6697H77.9959V0.429688H74.3959Z" fill="currentColor"/>
        <path d="M96.0801 3.94103V0.429688H82.2598V18.6697H96.0801V15.1583H85.8656V11.0329H95.2695V7.5331H85.8656V3.94103H96.0801Z" fill="currentColor"/>
        <path d="M109.465 9.11003H103.505V3.94103H109.664C111.282 3.94103 112.378 4.94427 112.378 6.44913C112.378 8.04337 111.207 9.11003 109.462 9.11003M112.188 12.1284C114.559 11.252 116.033 9.00913 116.033 6.28193C116.033 2.77635 113.656 0.429688 110.125 0.429688H99.9023V18.6668H103.508V12.5291H108.031L108.077 12.6041L111.562 18.6668H115.794L112.026 12.1832L112.188 12.1255V12.1284Z" fill="currentColor"/>
        <path d="M136.511 9.11003H130.551V3.94103H136.704C138.328 3.94103 139.418 4.94427 139.418 6.44913C139.418 8.04337 138.247 9.11003 136.508 9.11003M139.231 12.1284C141.602 11.252 143.076 9.00913 143.076 6.28193C143.076 2.77635 140.699 0.429688 137.168 0.429688H126.945V18.6668H130.551V12.5291H135.074L135.115 12.6041L138.605 18.6668H142.831L139.072 12.1832L139.234 12.1255L139.231 12.1284Z" fill="currentColor"/>
        <path d="M155.305 15.6742C151.466 15.6742 149.17 13.3852 149.17 9.54521C149.17 5.70521 151.466 3.42197 155.305 3.42197C159.145 3.42197 161.438 5.71098 161.438 9.54521C161.438 13.3794 159.147 15.6742 155.305 15.6742ZM155.305 0C149.268 0 145.518 3.66125 145.518 9.54809C145.518 15.4349 149.268 19.0962 155.305 19.0962C161.343 19.0962 165.087 15.4407 165.087 9.54809C165.087 3.65549 161.34 0 155.305 0Z" fill="currentColor"/>
        <path d="M177.665 15.2506H171.908V10.6322H177.642C179.301 10.6322 180.334 11.4971 180.334 12.8981C180.334 14.2992 179.284 15.2506 177.665 15.2506ZM171.908 3.84878H177.59C179.024 3.84878 179.887 4.56662 179.887 5.77742C179.887 6.98823 178.987 7.76949 177.481 7.76949H171.908V3.85166V3.84878ZM181.012 9.14462L180.657 9.02354L181.003 8.87363C182.621 8.17886 183.518 6.78643 183.518 4.93274C183.518 2.02968 181.372 0.429688 177.472 0.429688H168.311V18.6697H177.657C181.395 18.6697 184 16.4037 184 13.1576C184 11.1598 182.996 9.81345 181.014 9.14751" fill="currentColor"/>
        <path d="M201.031 3.94103V0.429688H187.217V18.6697H201.031V15.1583H190.817V11.0329H200.227V7.5331H190.817V3.94103H201.031Z" fill="currentColor"/>
        <path d="M214.866 9.11003H208.907V3.94103H215.06C216.684 3.94103 217.774 4.94427 217.774 6.44913C217.774 8.04337 216.603 9.11003 214.863 9.11003M217.586 12.1284C219.958 11.252 221.426 9.00913 221.426 6.28193C221.426 2.77635 219.055 0.429688 215.518 0.429688H205.301V18.6668H208.907V12.5291H213.43L213.47 12.6041L216.96 18.6668H221.186L217.425 12.1832L217.586 12.1255V12.1284Z" fill="currentColor"/>
        <path d="M223.615 0.429688V3.94103H230.737V18.6697H234.337V3.94103H241.445V0.429688H223.615Z" fill="currentColor"/>
        <path d="M252.382 7.92215C249.924 7.60215 247.61 7.30233 247.61 5.489C247.61 4.06774 249.018 3.21729 251.383 3.21729C254.427 3.21729 255.575 4.64431 255.993 5.90125L259.53 5.09981C258.627 1.85946 255.708 0 251.493 0C246.855 0 243.973 2.21405 243.973 5.77729C243.973 10.0612 247.98 10.6436 251.516 11.1539C253.951 11.4969 256.247 11.8256 256.247 13.5812C256.247 15.0054 254.779 15.8818 252.402 15.8818C249.71 15.8818 247.89 14.7574 247.258 12.7048L243.67 13.4861C244.587 16.9513 247.867 19.0962 252.269 19.0962C256.89 19.0962 259.876 16.761 259.876 13.1459C259.876 8.89368 255.898 8.37764 252.384 7.92503" fill="currentColor"/>
        <path d="M10.3868 8.738H18.5099V16.3113C15.9195 18.2111 13.508 19.0933 10.9378 19.0933C5.26656 19.0933 0.824219 14.9045 0.824219 9.54809C0.824219 4.1917 5.2031 0 10.7964 0C15.8128 0 18.1436 2.58306 18.5734 3.11639L16.1099 5.41693C15.7032 4.91819 14.0676 3.18558 10.8224 3.18558C7.3435 3.18558 4.72136 5.93296 4.72136 9.57692C4.72136 12.6414 6.72042 15.9394 11.1051 15.9394C12.7926 15.9394 13.8022 15.481 14.9676 14.6825L15.0311 14.6364V11.8429H10.3868V8.738Z" fill="currentColor"/>
        <path d="M104.835 33.4586C106.416 33.4586 107.567 32.5015 107.567 30.9735C107.567 29.4456 106.427 28.6413 105.028 28.6413H99.0973V33.4586H104.835ZM95.2637 24.8936H105.487C109.274 24.8936 111.458 27.4824 111.458 30.8063C111.458 33.4701 110.013 35.8024 107.572 36.7076L111.322 43.171H106.822L103.341 37.117H99.1002V43.171H95.2637V24.8936Z" fill="currentColor"/>
        <path d="M124.049 39.9335C127.641 39.9335 129.957 37.855 129.957 34.0323C129.957 30.2096 127.641 28.131 124.049 28.131C120.458 28.131 118.141 30.2067 118.141 34.0323C118.141 37.8579 120.458 39.9335 124.049 39.9335ZM114.256 34.0323C114.256 28.1426 118.104 24.4727 124.049 24.4727C129.994 24.4727 133.843 28.1426 133.843 34.0323C133.843 39.922 129.994 43.5919 124.049 43.5919C118.104 43.5919 114.256 39.922 114.256 34.0323Z" fill="currentColor"/>
        <path d="M136.549 36.4654V24.8936H140.385V36.1108C140.385 38.5065 141.955 39.9364 144.761 39.9364C147.568 39.9364 149.137 38.5094 149.137 36.1108V24.8936H152.974V36.4654C152.974 40.686 149.91 43.5919 144.761 43.5919C139.612 43.5919 136.549 40.686 136.549 36.4654Z" fill="currentColor"/>
        <path d="M165.458 33.6748C167.272 33.6748 168.325 32.6543 168.325 31.1004C168.325 29.5465 167.296 28.6413 165.666 28.6413H159.856V33.6748H165.458ZM156.02 24.8936H166.179C170.151 24.8936 172.211 27.5689 172.211 30.9361C172.211 34.3033 170.091 37.3735 165.752 37.3735H159.856V43.1739H156.02V24.8964V24.8936Z" fill="currentColor"/>
        <path d="M89.4314 30.1635L92.0651 27.7044C92.0651 27.7044 89.8497 24.4727 84.2044 24.4727C78.5592 24.4727 74.2207 28.7537 74.2207 34.0323C74.2207 39.3108 78.5448 43.5919 84.34 43.5919C87.1698 43.5919 89.5987 42.5137 91.9555 40.7753V33.0953H83.6535V36.4395H88.24V38.9822C87.1035 39.7577 86.1429 40.1988 84.5073 40.1988C80.4602 40.1988 78.3515 37.215 78.3515 34.0669C78.3515 30.6968 80.7659 27.9033 84.2304 27.9033C87.6948 27.9033 89.4285 30.1692 89.4285 30.1692" fill="currentColor"/>
        <path d="M186.474 31.0255V25.0205H185.389L183.456 28.3156L181.524 25.0205H180.404V31.0255H181.547V27.3355L183.22 30.1924H183.624L185.302 27.3355V31.0255H186.474Z" fill="currentColor"/>
        <path d="M177.185 26.1218H179.308V25.0205H173.873V26.1218H176.011V31.0255H177.185V26.1218Z" fill="currentColor"/>
    </g>
    <defs>
        <clipPath id="clip0_2541_393">
            <rect width="259.049" height="43.592" fill="currentColor" transform="translate(0.822266)"/>
        </clipPath>
    </defs>
</svg>
