<svg viewBox="0 0 21 16" fill="none"
    xmlns="http://www.w3.org/2000/svg">
    <path d="M17.5993 1.75468C16.2883 1.16064 14.9015 0.738695 13.4755 0.5C13.2812 0.84571 13.1049 1.20065 12.9473 1.56349C11.4328 1.33932 9.89193 1.33932 8.37738 1.56349C8.21826 1.20032 8.03991 0.845349 7.84304 0.5C6.41475 0.739114 5.02595 1.1627 3.71373 1.75946C1.38061 5.04131 0.329857 9.02157 0.749882 12.9865C2.27323 14.1014 3.98467 14.9514 5.80797 15.4988C6.21775 14.9523 6.57994 14.3738 6.89082 13.7691C6.29862 13.5506 5.72771 13.2812 5.18486 12.9643C5.32785 12.8616 5.46776 12.754 5.60273 12.6435C7.18008 13.3798 8.90829 13.7622 10.659 13.7622C12.4097 13.7622 14.1379 13.3798 15.7152 12.6435C15.852 12.754 15.9919 12.8616 16.1331 12.9643C15.5894 13.282 15.0174 13.5518 14.424 13.7703C14.7349 14.3751 15.0973 14.9537 15.5075 15.5C17.3323 14.953 19.0449 14.1023 20.5687 12.9859C20.9895 9.01883 19.9366 5.0364 17.5993 1.75468ZM7.34012 10.7244C6.83221 10.6888 6.35911 10.4611 6.02289 10.0903C5.68667 9.71957 5.51429 9.23553 5.54296 8.74265C5.51135 8.24896 5.68264 7.76322 6.01941 7.39163C6.35618 7.02004 6.83103 6.79282 7.34012 6.75966C7.59277 6.77454 7.83988 6.83776 8.06721 6.94566C8.29455 7.05356 8.4976 7.20402 8.66466 7.38836C8.83173 7.5727 8.95951 7.78727 9.04062 8.01971C9.12174 8.25214 9.1546 8.49785 9.1373 8.74265C9.16923 9.23629 8.998 9.72207 8.66113 10.0935C8.32426 10.465 7.84923 10.6919 7.34012 10.7244ZM13.9815 10.7244C13.4736 10.6888 13.0005 10.4611 12.6643 10.0903C12.3281 9.71957 12.1557 9.23553 12.1843 8.74265C12.1527 8.24896 12.324 7.76322 12.6608 7.39163C12.9976 7.02004 13.4724 6.79282 13.9815 6.75966C14.2342 6.77454 14.4813 6.83776 14.7086 6.94566C14.936 7.05356 15.139 7.20402 15.3061 7.38836C15.4731 7.5727 15.6009 7.78727 15.682 8.01971C15.7631 8.25214 15.796 8.49785 15.7787 8.74265C15.8105 9.23625 15.6392 9.72195 15.3023 10.0934C14.9655 10.4648 14.4906 10.6917 13.9815 10.7244Z" fill="currentColor"/>
</svg>
