<svg viewBox="0 0 19 15" fill="none"
    xmlns="http://www.w3.org/2000/svg">
    <path d="M16.7961 3.62109C17.4992 3.09375 18.132 2.46094 18.6242 1.72266C17.9914 2.00391 17.2531 2.21484 16.5148 2.28516C17.2883 1.82812 17.8508 1.125 18.132 0.246094C17.4289 0.667969 16.6203 0.984375 15.8117 1.16016C15.1086 0.421875 14.1594 0 13.1047 0C11.0656 0 9.41327 1.65234 9.41327 3.69141C9.41327 3.97266 9.44843 4.25391 9.51874 4.53516C6.46014 4.35938 3.71796 2.88281 1.88983 0.667969C1.57343 1.19531 1.39764 1.82812 1.39764 2.53125C1.39764 3.79688 2.03046 4.92188 3.04999 5.58984C2.45233 5.55469 1.85468 5.41406 1.36249 5.13281V5.16797C1.36249 6.96094 2.62811 8.4375 4.31561 8.78906C4.03436 8.85938 3.6828 8.92969 3.36639 8.92969C3.1203 8.92969 2.90936 8.89453 2.66327 8.85938C3.1203 10.3359 4.49139 11.3906 6.10858 11.4258C4.84296 12.4102 3.26093 13.0078 1.53827 13.0078C1.22186 13.0078 0.940613 12.9727 0.659363 12.9375C2.27655 13.9922 4.21014 14.5898 6.31952 14.5898C13.1047 14.5898 16.7961 9 16.7961 4.11328C16.7961 3.9375 16.7961 3.79688 16.7961 3.62109Z" fill="currentColor"/>
</svg>
